# This file uses centimeters as units for non-parametric coordinates.

mtllib 121815_movieScreens.mtl
g default1
v -183.515869 69.171402 -241.220108
v -181.939087 69.171402 -232.674667
v -180.747955 69.171402 -224.301163
v -180.920532 69.171402 -216.536545
v -181.919586 69.171402 -209.140884
v -183.572052 69.171402 -202.042557
v -185.829727 69.171402 -195.225662
v -188.492554 69.171402 -188.624649
v -191.431335 69.171402 -182.193604
v -194.977859 69.171402 -176.181503
v -198.853699 69.171402 -170.385574
v -202.853394 69.171402 -164.626953
v -207.121490 69.171402 -158.906570
v -211.685913 69.171402 -153.190155
v -216.935654 69.171402 -147.715775
v -222.861649 69.171402 -142.072311
v -229.121033 69.171402 -136.480759
v -183.515869 5.046406 -241.220108
v -181.939087 5.046406 -232.674667
v -180.747955 5.046406 -224.301163
v -180.920532 5.046406 -216.536545
v -181.919586 5.046406 -209.140884
v -183.572052 5.046406 -202.042557
v -185.829727 5.046406 -195.225662
v -188.492554 5.046406 -188.624649
v -191.431335 5.046406 -182.193604
v -194.977859 5.046406 -176.181503
v -198.853668 5.046406 -170.385544
v -202.853394 5.046406 -164.626953
v -207.121429 5.046406 -158.906555
v -211.685913 5.046406 -153.190155
v -216.935654 5.046406 -147.715775
v -222.861649 5.046406 -142.072311
v -229.121033 5.046406 -136.480759
g default2
v 210.078796 89.389847 -1677.955444
v 203.631042 89.417397 -1674.751587
v 197.183167 89.444954 -1671.547729
v 190.735291 89.472504 -1668.343872
v 184.287537 89.500061 -1665.140015
v 177.839661 89.527618 -1661.936157
v 171.391785 89.555176 -1658.732300
v 164.943970 89.582726 -1655.528442
v 158.496155 89.610275 -1652.324585
v 152.048279 89.637833 -1649.120728
v 145.600586 89.665390 -1645.916992
v 139.152710 89.692947 -1642.713135
v 132.704773 89.720505 -1639.509277
v 126.256897 89.748047 -1636.305420
v 119.809082 89.775604 -1633.101562
v 113.361389 89.803162 -1629.897705
v 106.913513 89.830719 -1626.693848
v 210.217712 24.595396 -1677.118652
v 203.769836 24.622950 -1673.914795
v 197.322083 24.650505 -1670.710938
v 190.874207 24.678059 -1667.507080
v 184.426331 24.705614 -1664.303223
v 177.978577 24.733168 -1661.099365
v 171.530701 24.760723 -1657.895508
v 165.082825 24.788277 -1654.691650
v 158.635010 24.815832 -1651.487793
v 152.187134 24.843386 -1648.283936
v 145.739441 24.870941 -1645.080078
v 139.291626 24.898495 -1641.876221
v 132.843628 24.926050 -1638.672363
v 126.395813 24.953604 -1635.468628
v 119.947937 24.981159 -1632.264771
v 113.500244 25.008715 -1629.060791
v 107.052429 25.036268 -1625.857056
g default3
v -150.086792 143.440247 -4317.472656
v -163.057007 143.495346 -4312.203125
v -176.027466 143.550446 -4306.933105
v -188.997192 143.605545 -4301.663086
v -201.967651 143.660645 -4296.393555
v -214.937866 143.715744 -4291.123535
v -227.907837 143.770844 -4285.853516
v -240.878052 143.825943 -4280.583984
v -253.848267 143.881042 -4275.313965
v -266.818481 143.936142 -4270.043945
v -279.788696 143.991241 -4264.774414
v -292.758911 144.046341 -4259.504395
v -305.728882 144.101425 -4254.234375
v -318.699341 144.156525 -4248.964844
v -331.669312 144.211624 -4243.694824
v -344.639282 144.266724 -4238.424805
v -357.609741 144.321823 -4233.155273
v -149.957275 17.450951 -4315.836426
v -162.927368 17.506046 -4310.566406
v -175.897339 17.561146 -4305.296875
v -188.867798 17.616245 -4300.026855
v -201.837769 17.671341 -4294.756836
v -214.807983 17.726440 -4289.487305
v -227.778198 17.781540 -4284.216797
v -240.748413 17.836636 -4278.947266
v -253.718384 17.891735 -4273.677246
v -266.688843 17.946835 -4268.407227
v -279.658813 18.001930 -4263.137695
v -292.629028 18.057030 -4257.867676
v -305.599243 18.112129 -4252.597656
v -318.569214 18.167225 -4247.328125
v -331.539673 18.222324 -4242.058105
v -344.509888 18.277424 -4236.788086
v -357.479858 18.332520 -4231.518555
vt 0.000000 0.000000
vt 0.062500 0.000000
vt 0.125000 0.000000
vt 0.187500 0.000000
vt 0.250000 0.000000
vt 0.312500 0.000000
vt 0.375000 0.000000
vt 0.437500 0.000000
vt 0.500000 0.000000
vt 0.562500 0.000000
vt 0.625000 0.000000
vt 0.687500 0.000000
vt 0.750000 0.000000
vt 0.812500 0.000000
vt 0.875000 0.000000
vt 0.937500 0.000000
vt 1.000000 0.000000
vt 0.000000 0.562500
vt 0.062500 0.562500
vt 0.125000 0.562500
vt 0.187500 0.562500
vt 0.250000 0.562500
vt 0.312500 0.562500
vt 0.375000 0.562500
vt 0.437500 0.562500
vt 0.500000 0.562500
vt 0.562500 0.562500
vt 0.625000 0.562500
vt 0.687500 0.562500
vt 0.750000 0.562500
vt 0.812500 0.562500
vt 0.875000 0.562500
vt 0.937500 0.562500
vt 1.000000 0.562500
vt 0.000000 0.000000
vt 0.062500 0.000000
vt 0.062500 0.562500
vt 0.000000 0.562500
vt 0.125000 0.000000
vt 0.125000 0.562500
vt 0.187500 0.000000
vt 0.187500 0.562500
vt 0.250000 0.000000
vt 0.250000 0.562500
vt 0.312500 0.000000
vt 0.312500 0.562500
vt 0.375000 0.000000
vt 0.375000 0.562500
vt 0.437500 0.000000
vt 0.437500 0.562500
vt 0.500000 0.000000
vt 0.500000 0.562500
vt 0.562500 0.000000
vt 0.562500 0.562500
vt 0.625000 0.000000
vt 0.625000 0.562500
vt 0.687500 0.000000
vt 0.687500 0.562500
vt 0.750000 0.000000
vt 0.750000 0.562500
vt 0.812500 0.000000
vt 0.812500 0.562500
vt 0.875000 0.000000
vt 0.875000 0.562500
vt 0.937500 0.000000
vt 0.937500 0.562500
vt 1.000000 0.000000
vt 1.000000 0.562500
vt 0.000000 0.000000
vt 0.062500 0.000000
vt 0.062500 0.562500
vt 0.000000 0.562500
vt 0.125000 0.000000
vt 0.125000 0.562500
vt 0.187500 0.000000
vt 0.187500 0.562500
vt 0.250000 0.000000
vt 0.250000 0.562500
vt 0.312500 0.000000
vt 0.312500 0.562500
vt 0.375000 0.000000
vt 0.375000 0.562500
vt 0.437500 0.000000
vt 0.437500 0.562500
vt 0.500000 0.000000
vt 0.500000 0.562500
vt 0.562500 0.000000
vt 0.562500 0.562500
vt 0.625000 0.000000
vt 0.625000 0.562500
vt 0.687500 0.000000
vt 0.687500 0.562500
vt 0.750000 0.000000
vt 0.750000 0.562500
vt 0.812500 0.000000
vt 0.812500 0.562500
vt 0.875000 0.000000
vt 0.875000 0.562500
vt 0.937500 0.000000
vt 0.937500 0.562500
vt 1.000000 0.000000
vt 1.000000 0.562500
vn 0.983351 0.000000 -0.181714
vn 0.985884 0.000000 -0.167432
vn 0.985884 0.000000 -0.167432
vn 0.983351 0.000000 -0.181714
vn 0.985884 0.000000 -0.167432
vn 0.995292 0.000000 -0.096920
vn 0.995292 0.000000 -0.096920
vn 0.985884 0.000000 -0.167432
vn 0.995292 0.000000 -0.096920
vn 0.999991 0.000000 -0.004353
vn 0.999991 0.000000 -0.004353
vn 0.995292 0.000000 -0.096920
vn 0.999991 0.000000 -0.004353
vn 0.997610 0.000000 0.069092
vn 0.997610 0.000000 0.069092
vn 0.999991 0.000000 -0.004353
vn 0.997610 0.000000 0.069092
vn 0.986318 0.000000 0.164854
vn 0.986318 0.000000 0.164854
vn 0.997610 0.000000 0.069092
vn 0.986318 0.000000 0.164854
vn 0.962731 0.000000 0.270461
vn 0.962731 0.000000 0.270461
vn 0.986318 0.000000 0.164854
vn 0.962731 0.000000 0.270461
vn 0.935465 0.000000 0.353420
vn 0.935465 0.000000 0.353420
vn 0.962731 0.000000 0.270461
vn 0.935465 0.000000 0.353420
vn 0.910208 0.000000 0.414153
vn 0.910208 0.000000 0.414153
vn 0.935465 0.000000 0.353420
vn 0.910208 0.000000 0.414153
vn 0.881012 0.000000 0.473094
vn 0.881012 0.000000 0.473094
vn 0.910208 0.000000 0.414153
vn 0.881012 0.000000 0.473094
vn 0.836379 0.000000 0.548151
vn 0.836379 0.000000 0.548151
vn 0.881012 0.000000 0.473094
vn 0.836379 0.000000 0.548151
vn 0.772256 0.000000 0.635312
vn 0.772256 0.000000 0.635312
vn 0.836379 0.000000 0.548151
vn 0.772256 0.000000 0.635312
vn 0.707476 0.000000 0.706738
vn 0.707476 0.000000 0.706738
vn 0.772256 0.000000 0.635312
vn 0.707476 0.000000 0.706738
vn 0.653666 0.000000 0.756783
vn 0.653666 0.000000 0.756783
vn 0.707476 0.000000 0.706738
vn 0.653666 0.000000 0.756783
vn 0.580792 0.000000 0.814052
vn 0.580792 0.000000 0.814052
vn 0.653666 0.000000 0.756783
vn 0.580792 0.000000 0.814052
vn 0.521450 0.000000 0.853282
vn 0.521450 0.000000 0.853282
vn 0.580792 0.000000 0.814052
vn 0.521450 0.000000 0.853282
vn 0.509018 0.000000 0.860756
vn 0.509018 0.000000 0.860756
vn 0.521450 0.000000 0.853282
vn 0.444991 0.012518 0.895448
vn 0.444991 0.012518 0.895448
vn 0.444991 0.012518 0.895448
vn 0.444991 0.012518 0.895448
vn 0.444991 0.012518 0.895448
vn 0.444991 0.012518 0.895448
vn 0.444991 0.012518 0.895448
vn 0.444991 0.012518 0.895448
vn 0.444991 0.012518 0.895448
vn 0.444991 0.012518 0.895448
vn 0.444991 0.012518 0.895448
vn 0.444991 0.012518 0.895448
vn 0.444991 0.012518 0.895448
vn 0.444991 0.012518 0.895448
vn 0.444991 0.012518 0.895448
vn 0.444991 0.012518 0.895448
vn 0.444991 0.012518 0.895448
vn 0.444991 0.012518 0.895448
vn 0.444991 0.012518 0.895448
vn 0.444991 0.012518 0.895448
vn 0.444991 0.012518 0.895448
vn 0.444991 0.012518 0.895448
vn 0.444991 0.012518 0.895448
vn 0.444991 0.012518 0.895448
vn 0.444991 0.012518 0.895448
vn 0.444991 0.012518 0.895448
vn 0.444991 0.012518 0.895448
vn 0.444991 0.012518 0.895448
vn 0.444991 0.012518 0.895448
vn 0.444991 0.012518 0.895448
vn 0.444991 0.012518 0.895448
vn 0.444991 0.012518 0.895448
vn 0.444991 0.012518 0.895448
vn 0.444991 0.012518 0.895448
vn 0.444991 0.012518 0.895448
vn 0.444991 0.012518 0.895448
vn 0.444991 0.012518 0.895448
vn 0.444991 0.012518 0.895448
vn 0.444991 0.012518 0.895448
vn 0.444991 0.012518 0.895448
vn 0.444991 0.012518 0.895448
vn 0.444991 0.012518 0.895448
vn 0.444991 0.012518 0.895448
vn 0.444991 0.012518 0.895448
vn 0.444991 0.012518 0.895448
vn 0.444991 0.012518 0.895448
vn 0.444991 0.012518 0.895448
vn 0.444991 0.012518 0.895448
vn 0.444991 0.012518 0.895448
vn 0.444991 0.012518 0.895448
vn 0.444991 0.012518 0.895448
vn 0.444991 0.012518 0.895448
vn 0.444991 0.012518 0.895448
vn 0.444991 0.012518 0.895448
vn 0.444991 0.012518 0.895448
vn 0.444991 0.012518 0.895448
vn 0.444991 0.012518 0.895448
vn 0.444991 0.012518 0.895448
vn 0.444991 0.012518 0.895448
vn 0.444991 0.012518 0.895448
vn 0.444991 0.012518 0.895448
vn 0.444991 0.012518 0.895448
vn 0.444991 0.012518 0.895448
vn 0.444991 0.012518 0.895448
vn 0.376439 0.012421 0.926358
vn 0.376439 0.012421 0.926358
vn 0.376439 0.012421 0.926358
vn 0.376439 0.012421 0.926358
vn 0.376439 0.012421 0.926358
vn 0.376439 0.012421 0.926358
vn 0.376439 0.012421 0.926358
vn 0.376439 0.012421 0.926358
vn 0.376439 0.012421 0.926358
vn 0.376439 0.012421 0.926358
vn 0.376439 0.012421 0.926358
vn 0.376439 0.012421 0.926358
vn 0.376439 0.012421 0.926358
vn 0.376439 0.012421 0.926358
vn 0.376439 0.012421 0.926358
vn 0.376439 0.012421 0.926358
vn 0.376439 0.012421 0.926358
vn 0.376439 0.012421 0.926358
vn 0.376439 0.012421 0.926358
vn 0.376439 0.012421 0.926358
vn 0.376439 0.012421 0.926358
vn 0.376439 0.012421 0.926358
vn 0.376439 0.012421 0.926358
vn 0.376439 0.012421 0.926358
vn 0.376439 0.012421 0.926358
vn 0.376439 0.012421 0.926358
vn 0.376439 0.012421 0.926358
vn 0.376439 0.012421 0.926358
vn 0.376439 0.012421 0.926358
vn 0.376439 0.012421 0.926358
vn 0.376439 0.012421 0.926358
vn 0.376439 0.012421 0.926358
vn 0.376439 0.012421 0.926358
vn 0.376439 0.012421 0.926358
vn 0.376439 0.012421 0.926358
vn 0.376439 0.012421 0.926358
vn 0.376439 0.012421 0.926358
vn 0.376439 0.012421 0.926358
vn 0.376439 0.012421 0.926358
vn 0.376439 0.012421 0.926358
vn 0.376439 0.012421 0.926358
vn 0.376439 0.012421 0.926358
vn 0.376439 0.012421 0.926358
vn 0.376439 0.012421 0.926358
vn 0.376439 0.012421 0.926358
vn 0.376439 0.012421 0.926358
vn 0.376439 0.012421 0.926358
vn 0.376439 0.012421 0.926358
vn 0.376439 0.012421 0.926358
vn 0.376439 0.012421 0.926358
vn 0.376439 0.012421 0.926358
vn 0.376439 0.012421 0.926358
vn 0.376439 0.012421 0.926358
vn 0.376439 0.012421 0.926358
vn 0.376439 0.012421 0.926358
vn 0.376439 0.012421 0.926358
vn 0.376439 0.012421 0.926358
vn 0.376439 0.012421 0.926358
vn 0.376439 0.012421 0.926358
vn 0.376439 0.012421 0.926358
vn 0.376439 0.012421 0.926358
vn 0.376439 0.012421 0.926358
vn 0.376439 0.012421 0.926358
vn 0.376439 0.012421 0.926358
s off
g pPlane3 polySurface2 polySurface3 polySurface1
usemtl initialShadingGroup1
f 1/1/1 2/2/2 19/19/3 18/18/4
f 2/2/5 3/3/6 20/20/7 19/19/8
f 3/3/9 4/4/10 21/21/11 20/20/12
f 4/4/13 5/5/14 22/22/15 21/21/16
f 5/5/17 6/6/18 23/23/19 22/22/20
f 6/6/21 7/7/22 24/24/23 23/23/24
f 7/7/25 8/8/26 25/25/27 24/24/28
f 8/8/29 9/9/30 26/26/31 25/25/32
f 9/9/33 10/10/34 27/27/35 26/26/36
f 10/10/37 11/11/38 28/28/39 27/27/40
f 11/11/41 12/12/42 29/29/43 28/28/44
f 12/12/45 13/13/46 30/30/47 29/29/48
f 13/13/49 14/14/50 31/31/51 30/30/52
f 14/14/53 15/15/54 32/32/55 31/31/56
f 15/15/57 16/16/58 33/33/59 32/32/60
f 16/16/61 17/17/62 34/34/63 33/33/64
g pPlane1 polySurface3 polySurface1
usemtl initialShadingGroup3
f 35/35/65 36/36/66 53/37/67 52/38/68
f 36/36/69 37/39/70 54/40/71 53/37/72
f 37/39/73 38/41/74 55/42/75 54/40/76
f 38/41/77 39/43/78 56/44/79 55/42/80
f 39/43/81 40/45/82 57/46/83 56/44/84
f 40/45/85 41/47/86 58/48/87 57/46/88
f 41/47/89 42/49/90 59/50/91 58/48/92
f 42/49/93 43/51/94 60/52/95 59/50/96
f 43/51/97 44/53/98 61/54/99 60/52/100
f 44/53/101 45/55/102 62/56/103 61/54/104
f 45/55/105 46/57/106 63/58/107 62/56/108
f 46/57/109 47/59/110 64/60/111 63/58/112
f 47/59/113 48/61/114 65/62/115 64/60/116
f 48/61/117 49/63/118 66/64/119 65/62/120
f 49/63/121 50/65/122 67/66/123 66/64/124
f 50/65/125 51/67/126 68/68/127 67/66/128
g group pasted__pPlane1 polySurface3 polySurface1
usemtl initialShadingGroup5
f 69/69/129 70/70/130 87/71/131 86/72/132
f 70/70/133 71/73/134 88/74/135 87/71/136
f 71/73/137 72/75/138 89/76/139 88/74/140
f 72/75/141 73/77/142 90/78/143 89/76/144
f 73/77/145 74/79/146 91/80/147 90/78/148
f 74/79/149 75/81/150 92/82/151 91/80/152
f 75/81/153 76/83/154 93/84/155 92/82/156
f 76/83/157 77/85/158 94/86/159 93/84/160
f 77/85/161 78/87/162 95/88/163 94/86/164
f 78/87/165 79/89/166 96/90/167 95/88/168
f 79/89/169 80/91/170 97/92/171 96/90/172
f 80/91/173 81/93/174 98/94/175 97/92/176
f 81/93/177 82/95/178 99/96/179 98/94/180
f 82/95/181 83/97/182 100/98/183 99/96/184
f 83/97/185 84/99/186 101/100/187 100/98/188
f 84/99/189 85/101/190 102/102/191 101/100/192
